<svg width="512" height="512" viewBox="0 0 72 72" fill="none" xmlns="http://www.w3.org/2000/svg">
  <defs>
    <linearGradient id="stem" x1="36" y1="20" x2="36" y2="60" gradientUnits="userSpaceOnUse">
      <stop offset="0%" stop-color="#6db87a"/>
      <stop offset="100%" stop-color="#4a9458"/>
    </linearGradient>
  </defs>
  <!-- 土壤线 -->
  <path d="M12 56 Q36 52 60 56" stroke="#8b7355" stroke-width="2.5" stroke-linecap="round" fill="none"/>
  <!-- 左茎 -->
  <path d="M26 56 L26 28" stroke="url(#stem)" stroke-width="3" stroke-linecap="round"/>
  <!-- 左叶片 (左) -->
  <path d="M26 40 C26 40 14 36 12 26 C18 26 26 32 26 40" fill="#6db87a" opacity="0.9"/>
  <!-- 左叶片 (右) -->
  <path d="M26 34 C26 34 36 30 38 20 C32 22 26 28 26 34" fill="#8dd49a" opacity="0.85"/>
  <!-- 右茎 -->
  <path d="M46 56 L46 28" stroke="url(#stem)" stroke-width="3" stroke-linecap="round"/>
  <!-- 右叶片 (右) -->
  <path d="M46 40 C46 40 58 36 60 26 C54 26 46 32 46 40" fill="#6db87a" opacity="0.9"/>
  <!-- 右叶片 (左) -->
  <path d="M46 34 C46 34 36 30 34 20 C40 22 46 28 46 34" fill="#8dd49a" opacity="0.85"/>
  <!-- 豆子 (左) -->
  <circle cx="26" cy="57" r="3.5" fill="#e8935a"/>
  <!-- 豆子 (右) -->
  <circle cx="46" cy="57" r="3.5" fill="#e8935a"/>
  <!-- 顶端嫩芽 (左) -->
  <path d="M26 28 C26 28 22 22 24 16 C28 18 28 24 26 28" fill="#a8e6b3" opacity="0.9"/>
  <!-- 顶端嫩芽 (右) -->
  <path d="M46 28 C46 28 50 22 48 16 C44 18 44 24 46 28" fill="#a8e6b3" opacity="0.9"/>
</svg>
