<svg width="144" height="64" viewBox="0 0 144 64" fill="none" xmlns="http://www.w3.org/2000/svg">
  <!--
    卯豆品牌组合 — 亮色版（浅背景）
    文字已转为路径，零字体依赖
  -->
  <defs>
    <linearGradient id="wm-stem" x1="32" y1="6" x2="32" y2="58" gradientUnits="userSpaceOnUse">
      <stop offset="0%" stop-color="#6db87a"/>
      <stop offset="100%" stop-color="#4a9458"/>
    </linearGradient>
  </defs>

  <!-- 图标 (原 72×72 viewBox, scale 0.833, translate 2,2) -->
  <g transform="translate(2, 2) scale(0.833)">
    <path d="M12 56 Q36 52 60 56" stroke="#8b7355" stroke-width="2.5" stroke-linecap="round" fill="none"/>
    <path d="M26 56 L26 28" stroke="url(#wm-stem)" stroke-width="3" stroke-linecap="round"/>
    <path d="M26 40 C26 40 14 36 12 26 C18 26 26 32 26 40" fill="#6db87a" opacity="0.9"/>
    <path d="M26 34 C26 34 36 30 38 20 C32 22 26 28 26 34" fill="#8dd49a" opacity="0.85"/>
    <path d="M46 56 L46 28" stroke="url(#wm-stem)" stroke-width="3" stroke-linecap="round"/>
    <path d="M46 40 C46 40 58 36 60 26 C54 26 46 32 46 40" fill="#6db87a" opacity="0.9"/>
    <path d="M46 34 C46 34 36 30 34 20 C40 22 46 28 46 34" fill="#8dd49a" opacity="0.85"/>
    <circle cx="26" cy="57" r="3.5" fill="#e8935a"/>
    <circle cx="46" cy="57" r="3.5" fill="#e8935a"/>
    <path d="M26 28 C26 28 22 22 24 16 C28 18 28 24 26 28" fill="#a8e6b3" opacity="0.9"/>
    <path d="M46 28 C46 28 50 22 48 16 C44 18 44 24 46 28" fill="#a8e6b3" opacity="0.9"/>
  </g>

  <!-- 分隔线 -->
  <line x1="66" y1="12" x2="66" y2="52" stroke="#d0cdc8" stroke-width="1"/>

  <!-- 文字路径: 卯 -->
  <path d="M 89.888 18.688 Q 90.336 18.944 90.976 19.392 Q 91.296 19.584 91.456 19.680 Q 91.616 19.776 91.712 19.872 Q 91.808 19.968 91.808 20.000 Q 91.808 20.032 91.808 20.096 Q 91.744 20.160 89.984 21.216 Q 88.224 22.272 87.584 22.528 Q 87.008 22.784 86.368 22.912 Q 85.792 23.104 85.472 23.168 L 85.280 23.232 L 85.280 28.480 Q 85.280 33.792 85.344 33.856 Q 85.408 33.920 86.624 33.216 L 87.904 32.576 L 87.904 28.352 L 87.904 24.128 L 89.184 24.128 L 90.464 24.128 L 90.464 31.104 Q 90.464 38.144 90.336 38.976 Q 90.208 39.744 89.952 40.448 Q 89.696 41.216 89.376 41.856 Q 88.992 42.560 88.672 43.072 Q 88.288 43.648 87.456 44.480 Q 86.624 45.312 85.920 45.824 Q 85.088 46.336 84.640 46.592 Q 84.064 46.848 84.032 46.816 Q 84.000 46.784 84.128 46.272 Q 84.256 45.760 84.768 45.440 Q 85.280 45.056 85.728 44.544 Q 86.240 44.032 86.560 43.520 Q 86.880 43.072 87.200 42.496 Q 87.456 41.856 87.584 41.344 Q 87.712 40.768 87.808 40.192 Q 87.904 39.616 87.904 37.056 L 87.840 34.432 L 85.792 35.520 Q 84.256 36.352 82.656 37.184 L 81.568 37.760 L 81.568 36.864 L 81.568 35.904 L 82.016 35.648 L 82.464 35.456 L 82.528 28.864 L 82.528 22.336 L 83.232 22.208 Q 83.936 22.080 84.448 21.952 Q 85.024 21.760 85.408 21.568 Q 85.856 21.312 86.048 21.120 Q 86.496 20.800 88.032 19.776 Q 89.760 18.624 89.888 18.688 Z M 98.720 21.056 Q 103.136 21.120 103.232 21.184 Q 103.328 21.248 103.264 29.440 Q 103.264 37.632 103.104 38.144 Q 102.944 38.656 102.752 38.976 Q 102.560 39.296 102.304 39.552 Q 102.048 39.744 101.664 39.936 Q 101.280 40.128 100.896 40.128 L 100.448 40.128 L 100.448 31.232 L 100.384 22.336 L 98.784 22.336 L 97.120 22.336 L 97.120 32.896 Q 97.120 43.456 96.992 44.032 Q 96.864 44.544 96.672 44.864 Q 96.544 45.248 96.288 45.568 Q 95.968 45.824 95.648 46.080 Q 95.200 46.272 94.752 46.272 L 94.304 46.272 L 94.240 33.792 Q 94.240 21.248 94.272 21.152 Q 94.304 21.056 98.720 21.056 Z" fill="#1a1a1a"/>
  <!-- 文字路径: 豆 -->
  <path d="M 119.968 23.232 L 119.968 23.680 L 120.032 24.192 L 125.792 24.192 L 131.552 24.192 L 131.552 23.680 L 131.552 23.232 L 132.896 23.232 L 134.304 23.232 L 134.304 27.648 Q 134.304 32.064 134.144 32.384 Q 133.984 32.704 133.792 32.960 Q 133.600 33.216 133.216 33.408 Q 132.832 33.664 132.256 33.664 Q 131.936 33.728 131.840 33.760 Q 131.744 33.792 131.744 33.856 Q 131.744 33.920 132.320 35.328 Q 132.832 36.672 132.896 36.800 Q 132.896 36.928 132.576 36.992 Q 132.320 37.056 131.808 37.184 Q 131.360 37.376 130.976 37.632 Q 130.528 37.888 129.696 38.720 Q 128.928 39.552 128.416 40.256 Q 127.968 40.896 127.968 40.928 Q 127.968 40.960 132.384 40.960 L 136.864 40.960 L 136.864 41.600 L 136.864 42.176 L 125.152 42.176 L 113.440 42.176 L 113.440 41.600 L 113.440 40.960 L 118.240 40.960 Q 122.976 40.960 123.008 40.928 Q 123.040 40.896 122.848 40.320 Q 122.656 39.744 122.336 39.104 Q 122.080 38.464 121.696 37.952 Q 121.312 37.376 120.800 36.864 Q 120.224 36.224 119.904 35.968 Q 119.584 35.648 119.264 35.424 Q 118.944 35.200 118.944 35.008 L 118.944 34.752 L 119.712 34.816 Q 120.544 34.816 121.184 35.008 Q 121.760 35.136 122.592 35.520 Q 123.296 35.904 123.936 36.544 Q 124.576 37.184 124.768 37.504 L 124.960 37.888 L 124.448 38.720 Q 123.680 40.064 123.616 40.192 Q 123.232 40.768 123.168 40.896 Q 123.168 40.896 123.232 40.928 Q 123.296 40.960 123.552 40.960 Q 123.808 40.960 124.224 40.960 Q 124.640 40.960 125.408 40.960 L 127.712 40.960 L 127.712 40.832 Q 127.648 40.640 127.840 39.872 Q 128.032 39.040 128.352 38.080 Q 128.736 37.056 129.056 36.288 Q 129.504 35.456 129.856 34.912 Q 130.208 34.368 130.592 33.984 Q 130.976 33.600 131.264 33.472 Q 131.552 33.344 131.552 33.024 L 131.552 32.640 L 125.664 32.640 L 119.776 32.640 L 119.520 32.960 Q 119.264 33.280 118.816 33.472 Q 118.368 33.664 117.856 33.664 L 117.280 33.664 L 117.280 28.480 Q 117.280 23.296 117.344 23.232 Q 117.408 23.168 118.688 23.168 Z M 120.032 31.488 L 131.552 31.488 L 131.552 25.472 L 120.032 25.472 Z" fill="#1a1a1a"/>
</svg>
